<?xml version="1.0" encoding="iso-8859-1"?>
<!-- Generator: Adobe Illustrator 19.0.0, SVG Export Plug-In . SVG Version: 6.00 Build 0)  -->
<svg version="1.1" id="Capa_1" xmlns="http://www.w3.org/2000/svg" xmlns:xlink="http://www.w3.org/1999/xlink" x="0px" y="0px"
	 viewBox="0 0 512 512" style="enable-background:new 0 0 512 512;" xml:space="preserve">
<g>
	<g>
		<path d="M422,0c-49.626,0-90,40.374-90,90c0,17.586,5.075,34.008,13.831,47.885L137.885,345.831
			C124.008,337.075,107.586,332,90,332c-49.626,0-90,40.374-90,90c0,49.626,40.374,90,90,90c49.626,0,90-40.374,90-90
			c0-17.586-5.075-34.007-13.83-47.885L374.115,166.17C387.993,174.925,404.414,180,422,180c49.626,0,90-40.374,90-90
			C512,40.374,471.626,0,422,0z M90,472c-27.57,0-50-22.43-50-50s22.43-50,50-50s50,22.43,50,50S117.57,472,90,472z M422,140
			c-27.57,0-50-22.43-50-50s22.43-50,50-50s50,22.43,50,50S449.57,140,422,140z"/>
	</g>
</g>
<g>
</g>
<g>
</g>
<g>
</g>
<g>
</g>
<g>
</g>
<g>
</g>
<g>
</g>
<g>
</g>
<g>
</g>
<g>
</g>
<g>
</g>
<g>
</g>
<g>
</g>
<g>
</g>
<g>
</g>
</svg>
