<?xml version="1.0" encoding="iso-8859-1"?>
<!-- Generator: Adobe Illustrator 21.0.0, SVG Export Plug-In . SVG Version: 6.00 Build 0)  -->
<svg xmlns="http://www.w3.org/2000/svg" xmlns:xlink="http://www.w3.org/1999/xlink" version="1.1" id="Capa_1" x="0px" y="0px" viewBox="0 0 511.99 511.99" style="enable-background:new 0 0 511.99 511.99;" xml:space="preserve" width="512" height="512">
<path id="_x3C_Group_x3E__2_" d="M507.582,245.376l-66.954-66.954c-5.859-5.859-15.352-5.859-21.211,0s-5.859,15.352,0,21.211  L460.784,241H270.995V51.211l41.367,41.367c5.86,5.86,15.351,5.86,21.211,0c5.859-5.859,5.859-15.352,0-21.211L266.6,4.395  c-5.859-5.859-15.352-5.859-21.211,0l-66.973,66.973c-5.859,5.859-5.859,15.352,0,21.211s15.352,5.859,21.211,0l41.367-41.367V241  H51.206l41.367-41.367c5.859-5.859,5.859-15.352,0-21.211s-15.352-5.859-21.211,0L4.408,245.376c-5.843,5.828-5.867,15.396,0,21.248  l66.954,66.954c5.86,5.86,15.351,5.86,21.211,0c5.859-5.859,5.859-15.352,0-21.211L51.206,271h189.789v189.789l-41.367-41.367  c-5.859-5.859-15.352-5.859-21.211,0s-5.859,15.352,0,21.211l66.954,66.954c5.991,6.006,15.531,5.732,21.248,0l66.954-66.954  c5.859-5.859,5.859-15.352,0-21.211s-15.352-5.859-21.211,0l-41.367,41.367V271h189.789l-41.367,41.367  c-5.859,5.859-5.859,15.352,0,21.211c5.86,5.86,15.351,5.86,21.211,0l66.954-66.954  C513.449,260.772,513.425,251.204,507.582,245.376z"/>















</svg>
